HIERARCHY
ROOT Hips
{
	OFFSET 0.000000 0.000000 0.000000
	CHANNELS 6 Xposition Yposition Zposition Zrotation Yrotation Xrotation 
	JOINT LHipJoint
	{
		OFFSET 0.000000 0.000000 0.000000
		CHANNELS 3 Zrotation Yrotation Xrotation
		JOINT LeftUpLeg
		{
			OFFSET 1.363060 -1.794630 0.839290
			CHANNELS 3 Zrotation Yrotation Xrotation
			JOINT LeftLeg
			{
				OFFSET 2.448110 -6.726130 0.000000
				CHANNELS 3 Zrotation Yrotation Xrotation
				JOINT LeftFoot
				{
					OFFSET 2.562200 -7.039590 0.000000
					CHANNELS 3 Zrotation Yrotation Xrotation
					JOINT LeftToeBase
					{
						OFFSET 0.157640 -0.433110 2.322550
						CHANNELS 3 Zrotation Yrotation Xrotation
						End Site
						{
							OFFSET 0.000000 0.000000 0.000000
						}
					}
				}
			}
		}
	}
	JOINT RHipJoint
	{
		OFFSET 0.000000 0.000000 0.000000
		CHANNELS 3 Zrotation Yrotation Xrotation
		JOINT RightUpLeg
		{
			OFFSET -1.305520 -1.794630 0.839290
			CHANNELS 3 Zrotation Yrotation Xrotation
			JOINT RightLeg
			{
				OFFSET -2.542530 -6.985550 0.000000
				CHANNELS 3 Zrotation Yrotation Xrotation
				JOINT RightFoot
				{
					OFFSET -2.568260 -7.056230 0.000000
					CHANNELS 3 Zrotation Yrotation Xrotation
					JOINT RightToeBase
					{
						OFFSET -0.164730 -0.452590 2.363150
						CHANNELS 3 Zrotation Yrotation Xrotation
						End Site
						{
							OFFSET 0.000000 0.000000 0.000000
						}
					}
				}
			}
		}
	}
}
MOTION
Frames: 11
Frame Time: 0.008333
-4.172821 17.331326 0.500350 -4.077789 -76.576749 17.227441 -10.046768 -0.308376 1.023377 -8.709006 -8.365901 -17.462208 -1.585930 -0.474985 11.331125 1.391680 8.201803 -5.514339 0.416101 -0.000000 -33.886499 9.832899 -0.275798 -3.741418 7.195629 -8.710246 -31.543320 0.096436 -3.848145 48.272364 -1.820497 -9.315390 9.984426 -2.876700 -0.000000 -79.510800
-4.159048 17.330357 0.529532 -5.107496 -76.262400 17.903372 -10.081083 -0.359929 0.956409 -8.534947 -8.352541 -17.172846 -1.557331 -0.449814 11.614825 1.381412 8.108793 -5.684300 0.376699 0.000000 -33.905400 9.879844 -0.180757 -3.817443 7.176646 -8.859640 -32.899324 -0.112481 -4.026704 50.852369 -1.856546 -9.254724 12.471891 -3.113200 0.000000 -79.543400
-4.143367 17.329471 0.558383 -6.174975 -75.950489 18.611283 -10.116623 -0.418105 0.880577 -8.340374 -8.346695 -16.884667 -1.524073 -0.422171 11.921478 1.375661 8.042726 -5.859829 0.338300 -0.000000 -33.923601 9.913099 -0.069597 -3.894532 7.174576 -8.982221 -34.273609 -0.306458 -4.189010 53.384825 -1.914495 -9.225571 15.025440 -3.354100 0.000000 -79.233400
-4.125858 17.328805 0.586941 -7.281499 -75.640362 19.353327 -10.153445 -0.481951 0.797544 -8.124060 -8.351387 -16.595910 -1.486122 -0.392127 12.244867 1.374239 8.003676 -6.036731 0.301499 0.000000 -33.943400 9.932073 0.055150 -3.975294 7.190562 -9.087549 -35.663095 -0.479940 -4.338491 55.858472 -1.986813 -9.207103 17.574629 -3.588800 -0.000000 -78.625700
-4.106660 17.328466 0.615200 -8.424060 -75.330002 20.126804 -10.191482 -0.550087 0.709696 -7.885677 -8.369631 -16.303830 -1.443584 -0.360032 12.576045 1.376887 7.991849 -6.208908 0.267001 0.000000 -33.969000 9.937243 0.190000 -4.061575 7.223783 -9.186083 -37.065868 -0.630386 -4.479530 58.262102 -2.064934 -9.177951 20.042769 -3.803400 0.000000 -77.843100
-4.085824 17.328617 0.643451 -9.629809 -75.022005 20.960149 -10.232752 -0.622290 0.615474 -7.618747 -8.384090 -16.012586 -1.397133 -0.325734 12.912382 1.381053 7.991058 -6.374880 0.234100 0.000000 -33.999900 9.928742 0.330163 -4.154112 7.281173 -9.277767 -38.482044 -0.758865 -4.616553 60.586939 -2.139535 -9.111184 22.356026 -3.979400 -0.000000 -76.900100
-4.063460 17.329352 0.671555 -10.882729 -74.714890 21.839008 -10.276528 -0.696847 0.518895 -7.325439 -8.402922 -15.720782 -1.346929 -0.289985 13.241327 1.387069 8.005736 -6.526484 0.204401 -0.000000 -34.046000 9.908308 0.473071 -4.253099 7.358373 -9.370656 -39.915261 -0.869315 -4.753586 62.823792 -2.203599 -8.991015 24.440340 -4.100800 -0.000000 -76.022500
-4.039763 17.330752 0.699643 -12.195001 -74.409607 22.779675 -10.324022 -0.773170 0.419858 -7.002143 -8.413237 -15.433435 -1.293710 -0.253144 13.558384 1.392991 8.023620 -6.661674 0.177700 0.000000 -34.109700 9.877001 0.615292 -4.357135 7.458658 -9.462318 -41.369616 -0.967604 -4.893517 64.965642 -2.251319 -8.800271 26.237304 -4.151200 0.000000 -75.293000
-4.014928 17.332907 0.727598 -13.550737 -74.108887 23.770425 -10.374541 -0.850252 0.320540 -6.652468 -8.418147 -15.149816 -1.237889 -0.216146 13.851007 1.399098 8.048247 -6.774133 0.155099 0.000000 -34.195400 9.836333 0.756122 -4.464254 7.576073 -9.550910 -42.851542 -1.060289 -5.038063 67.006792 -2.279305 -8.528121 27.701341 -4.118600 0.000001 -74.840700
-3.988981 17.335808 0.755791 -14.993502 -73.809600 24.856121 -10.431624 -0.928666 0.217549 -6.263118 -8.384060 -14.884751 -1.180534 -0.178389 14.130644 1.400652 8.046362 -6.870172 0.134600 0.000000 -34.306700 9.786273 0.891880 -4.572240 7.724518 -9.630523 -44.363895 -1.153198 -5.187667 68.942640 -2.284846 -8.163782 28.796087 -3.992799 0.000000 -74.508700
-3.962176 17.339434 0.783726 -16.465802 -73.516750 25.984623 -10.491347 -1.007198 0.115853 -5.850479 -8.338744 -14.629035 -1.121584 -0.141757 14.374671 1.401604 8.046622 -6.939623 0.119000 -0.000000 -34.441000 9.728340 1.026022 -4.677343 7.883390 -9.696587 -45.912471 -1.250244 -5.341170 70.763566 -2.269643 -7.717705 29.524206 -3.781600 -0.000001 -74.562900
